<?xml version="1.0" encoding="utf-8"?>
<!-- Generator: Adobe Illustrator 19.0.0, SVG Export Plug-In . SVG Version: 6.00 Build 0)  -->
<svg version="1.1" id="Layer_1" xmlns="http://www.w3.org/2000/svg" xmlns:xlink="http://www.w3.org/1999/xlink" x="0px" y="0px"
	 viewBox="184 -192 800 600" style="enable-background:new 184 -192 800 600;" xml:space="preserve">
<style type="text/css">
	.st0{fill:url(#XMLID_12_);}
	.st1{opacity:0.1;}
	.st2{fill:url(#XMLID_13_);}
	.st3{fill:url(#XMLID_15_);}
	.st4{fill:url(#XMLID_17_);}
	.st5{fill:url(#XMLID_18_);}
	.st6{fill:url(#XMLID_19_);}
	.st7{fill:url(#XMLID_22_);}
	.st8{fill:url(#XMLID_24_);}
	.st9{opacity:0.2;}
	.st10{fill:url(#XMLID_25_);}
	.st11{fill:url(#XMLID_35_);}
	.st12{fill:url(#XMLID_37_);}
	.st13{fill:#F2F2F2;}
</style>
<linearGradient id="XMLID_12_" gradientUnits="userSpaceOnUse" x1="354.0962" y1="-290.2051" x2="813.9038" y2="506.2051" gradientTransform="matrix(1 0 0 -1 0 216)">
	<stop  offset="0" style="stop-color:#55001A"/>
	<stop  offset="1" style="stop-color:#E62AFF"/>
</linearGradient>
<rect id="XMLID_1_" x="184" y="-192" class="st0" width="800" height="600"/>
<g id="XMLID_2_" class="st1">
	<image style="overflow:visible;" width="196" height="162" xlink:href="1F0BD9B7.png"  transform="matrix(1 0 0 1 796.88 251.88)">
	</image>
	<g>
		<g>
			
				<linearGradient id="XMLID_13_" gradientUnits="userSpaceOnUse" x1="804.8884" y1="-123.2688" x2="908.6349" y2="-123.2688" gradientTransform="matrix(1 0 0 -1 0 216)">
				<stop  offset="0" style="stop-color:#BFEAFF"/>
				<stop  offset="1" style="stop-color:#FF94ED"/>
			</linearGradient>
			<path id="XMLID_94_" class="st2" d="M862.5,293.6c2.3-1.8,4.4-3.5,6.6-5.2c0.3-0.2,0.9-0.2,1.3-0.1c14.3,4.1,25.2,12.6,32.2,25.9
				c15.9,30.4-1,67-34.5,74.8c-28,6.5-56.6-12-62.2-40.2c-5.3-27,10.7-53.1,36.9-60.4c0.8-0.2,1.4-0.1,2,0.4c1.9,1.6,3.8,3.1,6,4.8
				c-13.6,2.2-24.3,8.7-31.7,20c-7.5,11.3-9.4,23.7-5.9,36.7c5.6,20.8,25.3,34.9,47.3,33c22.5-1.9,40.2-20.2,41.2-43
				C902.7,316.9,885.8,296.8,862.5,293.6z"/>
			
				<linearGradient id="XMLID_15_" gradientUnits="userSpaceOnUse" x1="888.5912" y1="-122.2767" x2="969.5882" y2="-122.2767" gradientTransform="matrix(1 0 0 -1 0 216)">
				<stop  offset="0" style="stop-color:#BFEAFF"/>
				<stop  offset="1" style="stop-color:#FF94ED"/>
			</linearGradient>
			<path id="XMLID_93_" class="st3" d="M893.9,300c-1.8-1.5-3.5-3-5.2-4.5c15-11.2,42.7-14.3,63.4,4c20.8,18.3,23.3,50.3,5.6,71.7
				c-18.4,22.2-49,24-69.2,9.9c1.7-1.5,3.5-3,5.3-4.5c11.2,6.7,23.2,8.5,35.8,5.1c10.2-2.7,18.4-8.5,24.6-17.1
				c12.3-17,11.2-40.4-2.7-56.1C937.5,292.6,913.4,288.1,893.9,300z"/>
			
				<linearGradient id="XMLID_17_" gradientUnits="userSpaceOnUse" x1="835.0651" y1="-63.0383" x2="878.1666" y2="-63.0383" gradientTransform="matrix(1 0 0 -1 0 216)">
				<stop  offset="0" style="stop-color:#BFEAFF"/>
				<stop  offset="1" style="stop-color:#FF94ED"/>
			</linearGradient>
			<path id="XMLID_92_" class="st4" d="M856.6,298c-1.9-3.2-4.7-5.3-7.5-7.5c-3.8-3-7.8-5.9-10.8-9.9c-2.8-3.8-4.1-7.9-2.9-12.5
				c1.2-4.7,5.4-7.8,10.5-8c4.7-0.3,8.5,2.3,10.3,6.9c0.1,0.2,0.1,0.3,0.3,0.6c0.1-0.2,0.2-0.4,0.3-0.6c2.7-7.6,11.4-8.5,16.6-4.8
				c4,2.8,5.6,7.8,4.1,13c-1,3.5-3,6.3-5.6,8.7c-2.9,2.7-6.1,5.2-9.2,7.7C860.5,293.4,858.2,295.2,856.6,298z"/>
			
				<linearGradient id="XMLID_18_" gradientUnits="userSpaceOnUse" x1="865.8771" y1="-122.25" x2="886.0636" y2="-122.25" gradientTransform="matrix(1 0 0 -1 0 216)">
				<stop  offset="0" style="stop-color:#BFEAFF"/>
				<stop  offset="1" style="stop-color:#FF94ED"/>
			</linearGradient>
			<path id="XMLID_91_" class="st5" d="M880.8,302c1.8,1.4,3.5,2.7,5.3,4.1c-8.8,9-13.4,19.7-13.4,32.1c0,12.5,4.6,23.2,13.4,32.2
				c-1.8,1.4-3.5,2.7-5.2,4.1C861.9,356.4,859.9,323,880.8,302z"/>
		</g>
	</g>
</g>
<g id="XMLID_4_" class="st1">
	
		<linearGradient id="XMLID_19_" gradientUnits="userSpaceOnUse" x1="176.7256" y1="293.9621" x2="464.3336" y2="293.9621" gradientTransform="matrix(0.999 4.527932e-002 4.527932e-002 -0.999 -5.1716 192.4604)">
		<stop  offset="0" style="stop-color:#BFEAFF"/>
		<stop  offset="1" style="stop-color:#FF94ED"/>
	</linearGradient>
	<path id="XMLID_76_" class="st6" d="M372.1-29.3c-1.2-1.8-2.1-3.7-3.5-5.1c-3.5-3.7-7.2-7.1-10.8-10.7c-3.3-3.4-5.6-7.2-5.6-12.1
		c0.1-4,2.9-8.2,6.6-9.7c4.3-1.7,8.8-0.8,11.7,2.3c0.7,0.8,1.4,1.7,2.1,2.5c0.2-0.1,0.3-0.2,0.5-0.2c0.2-4.6,0.4-9.1,0.6-13.7
		c0-0.4-0.6-0.8-1-1.1c-1.7-1-3.2-2.2-3.1-4.4c0.1-2.4,1-4.2,3.6-4.9c0.5-0.1,1-1.3,1.1-2.1c0.2-5.6,0.3-11.2,0.5-16.8
		c0.2-6,0.4-12,0.8-18.1c0.1-1.8-0.5-2.6-2.2-2.9c-2.5-0.4-4.9-0.9-7.8-1.4c1.8,1.8,3.1,3.1,4.3,4.5c0.7,0.8,1.1,1.9,1.3,3
		c0.6,2.3-0.9,3.8-3.2,3.6c-1.1-0.1-2.2-0.2-3.2-0.5c-4.7-1.2-6.3-3.6-5.4-8.3c0.2-1.2,1.3-2.3,1.9-3.4
		c-14.9-3.4-29.7-7.4-42.7-15.3c0.3,2,0.8,4.2,0.8,6.4c0,2.1-1,2.7-2.8,1.7c-2.2-1.2-4.6-2.6-6.3-4.4c-1.8-1.9-1.2-4.4,0.2-7.1
		c-11.1-4.7-22-9.3-32.9-13.9c-0.1,0.2-0.2,0.4-0.3,0.6c2.2,1.4,4.4,2.7,6.7,4.1c7.5,4.7,15.4,9,21.7,15.4c3.1,3.2,6.6,5.7,10.7,7.5
		c2.5,1.1,4.8,1.5,7.6,0.5c5.5-2,10.6-0.5,15.3,2.8c1.4,1,1.8,2.2,0.8,3.8c-1.1,1.6-0.5,4,1.1,5c1.8,1.1,2.5,2.6,2.2,4.7
		c-0.2,2-1.4,2.9-3.1,3.7c-0.5,0.2-1.2,0.8-1.2,1.3c-0.3,4.4-0.5,8.9-0.7,13.8c1.8-1.4,3-2.7,4.5-3.5c3.9-2.1,8.8-1.4,12.1,1.5
		c3.4,3,4.3,7.1,2.9,11.8c-1.4,4.5-4.7,7.6-8.3,10.2c-4.9,3.5-9.9,6.9-12.9,12.8c-0.9-1.5-1.5-3-2.5-4c-2.9-3.2-5.9-6.4-9.1-9.4
		c-3.7-3.5-7.1-7-8-12.3c-1.1-6.7,4-12.5,10.8-12.5c4.3,0,7.2,2.1,9.8,5.9c0.1-2.9,0.2-5.3,0.3-7.6c0.1-1.6,0.1-3.3,0.3-4.9
		s0-2.7-1.8-3.5c-1.6-0.7-2.4-2.3-2.2-4.3s1.4-3.2,3.1-4c0.4-0.2,0.9-0.3,1.4-0.4c0-0.9,0.1-1.8,0.1-2.9c-0.8,0.1-1.5,0.1-2.2,0.2
		c-5.2,1.2-9.9-0.2-14.4-2.8c-2.1-1.2-4.3-2.3-6.5-3.4c-1.9-1-3.8-1.9-5.5-2.7c-0.1,1.9-0.1,3.7-0.3,5.6c0,0.6-0.3,1.2-0.6,1.7
		c-0.4,0.7-1.3,1.5-1.1,1.9c0.5,1.2,1.4,2.4,2.3,3.4c0.2,0.3,1.1,0.1,1.7,0c3.8-0.8,7.4-0.5,10.5,2.1c2,1.8,3.3,4.1,2.8,6.9
		c-0.1,0.6-0.8,1.6-1.2,1.6c-5.2,0.2-10.4-0.1-14-4.4c-1.8-2.2-2.8-5.2-4.1-7.8c-0.4-0.7-0.9-1.4-1.3-2.2c-0.2,0.1-0.4,0.2-0.6,0.2
		c0.7,2.2,1.3,4.4,2,6.6c2.6,8.1,5.1,16.2,6.1,24.7c0.3,2.9,0.6,5.8,0.9,8.7c0.1,0.7,0.4,1.5,0.9,1.9c6.3,5,5,10.3,0.3,15
		c-1.2,1.2-1.9,2.2-1.9,4c0.1,2.7-0.2,5.3-0.3,8c-0.1,1.1,0,1.8,1.3,2.4c1.8,0.8,2.7,2.6,2.5,4.6c-0.2,1.9-1.3,3.4-3.3,4.1
		c-0.5,0.2-1.2,0.7-1.2,1c-0.3,3.5-0.4,7.1-0.3,10.7c2.2-2.6,4.8-4,8.1-4.5c6.5-0.9,12.6,5.5,11.8,12c-0.7,5.4-3.8,9-7.7,12.1
		c-2.6,2.1-5.5,3.8-8,6.1c-2.4,2.2-4.4,4.8-6.7,7.4c-0.9-1.5-1.7-3.2-2.9-4.5c-3.2-3.5-6.6-6.9-10.1-10.2c-3.9-3.7-6.9-7.9-6.5-13.6
		c0.3-4.3,2.3-7.6,6.3-9.3c4.1-1.7,8-1.5,11.4,1.6c0.9,0.9,1.8,1.8,2.8,2.8c0.2-3.8,0.3-7.6,0.5-11.5c-2.7-0.8-4.2-2.4-3.8-5.5
		c0.3-2.6,2.1-3.7,4.5-4.3c0.2-3.5,0.3-7.1,0.5-10.9c-3.8-1.4-7.3-3.4-8-8.3c-0.6-4.4,1.6-7.9,3.4-11.6c-3.1,3.6-7,5-11.5,5.4
		c-1.5,0.1-1.9-0.5-2-1.6c-0.4-6.8,2.8-11.4,10.4-11.4c1.2,0,2.4,0.1,3.9,0.2c-0.3-2-0.4-3.7-0.7-5.4c-0.3-1.7-0.7-3.3-1.6-5.5
		c-0.1,0.3-0.2,0.6-0.3,0.9c-0.7,2.8-2.9,3.9-5.3,4.5c-1.8,0.5-3.8,0.4-5.7,0.6c-1.5,0.2-2-0.6-2.1-1.8c-0.8-6.8,1-10.1,7.6-12
		c0.7-0.2,1.4-0.3,2.2-0.5c-0.9-4-1.3-7.9-3.8-11.9c-0.5,1.1-1,1.8-1.1,2.5c-0.8,5.4-3.4,8-8.8,8.5c-1.6,0.2-3.2,0.2-4.9,0.2
		c-0.9-4,0.2-7.5,3-9.7c2.5-2,6-3,9.1-4.4c-0.9-3.6-4.2-8.5-7.3-10.1c-0.3,6.9-4.8,8.9-10.7,9.6c-2.9,0.3-3.1,0.1-2.5-2.8
		c1.1-5.5,4-9.1,9.8-9.7c0.3,0,0.6-0.2,0.9-0.3c-1.1-4.1-14.7-15.6-20.5-17.3c-0.1,1.6,0.2,3.2-0.3,4.6c-0.9,2.6-4.7,4.7-6.4,3.9
		c-5-2.4-7-6.4-5-10.3c0.9-1.7,2.1-3.2,3.3-5c-2.5-1.5-5-2.9-7.9-4.6c0.4,3.3,0.8,6.1,1.1,8.9c0.2,1.6,0.6,3.3,0.4,4.9
		c-0.3,2.6,0.7,4.1,2.5,5.8c4.3,3.9,3.5,10.2-1.4,13.2c-0.6,0.4-1.2,1.3-1.2,2c-0.1,8.1-0.4,16.1-0.8,24c-0.3,6.4-0.8,12.9-1.1,19.3
		c0,0.6,0.4,1.6,0.9,1.9c2.3,1.1,2.8,3,2.5,5.3c-0.2,2.1-1.7,3-3.4,3.6c-0.3,0.1-0.5,0.2-0.9,0.3c-0.2,4.6-0.4,9.1-0.6,13.9
		c3.4-3.8,7.3-5.7,12.3-4.1c6.9,2.2,9.6,9.5,6.1,16c-2,3.7-4.9,6.6-8.3,8.9c-4.9,3.3-9.4,7-12.6,12.3c-1.3-2.1-2.3-4.1-3.8-5.8
		c-2.6-2.9-5.4-5.6-8.2-8.2c-3.3-3-6.3-6.4-7.2-10.8c-1.3-6.5,1.5-11.6,8.2-13.5c4.3-1.2,8,0.1,10.8,3.6c0.4,0.5,0.7,1,1.1,1.5
		c0.2,0,0.4-0.1,0.5-0.1c0.1-3.3,0.3-6.6,0.5-9.9c0-0.5,0-1.1,0.1-1.6c0.5-1.5,0.1-2.3-1.4-2.8c-1.8-0.6-2.6-2.3-2.4-3.9
		c0.2-1.4,1-3.3,2.1-3.9c2.3-1.1,2.7-2.7,2.8-5c0.4-8.5,0.9-17,1.5-25.5c0.3-4.8,0.7-9.7,1.1-14.5c0.1-1.3-0.3-2.1-1.3-3.1
		c-1.6-1.5-3-3.4-3.9-5.4c-1.2-2.8,0.3-5.3,1.8-7.6c1.9-2.9,1.9-2.9,0.9-6.6c-0.8,1.5-1.7,2.9-2.3,4.5c-2,4.7-3.3,9.6-2.5,14.7
		c0.2,1,0.8,2,1.5,2.8c2,2.5,3.6,5.2,2.5,8.6c-0.9,2.9-3.5,4.2-5.9,5.6c-0.2,0.1-0.6-0.1-0.9-0.3c-4.4-1.9-6.2-6.7-4.1-11
		c0.3-0.6,0.5-1.1,0.8-1.6c0.7-1.1,1.6-2.1,2-3.3c0.4-1.1,0.3-2.4,0.5-4c-1,0.2-1.8,0.5-2.7,0.6c-2.3,0.2-4.7,0.5-7,0.2
		c-1-0.1-2.3-1.5-2.5-2.5c-0.2-0.8,1-2.3,1.9-2.7c3.6-1.8,7.4-3,11.3,0c1.3-3.7,2.6-7.2,4.1-11.2c-3.6,4.2-7.8,3.7-12.2,2.9
		c-1.6-0.3-2.3-1-1.5-2.7c1.5-3.4,5.1-5.9,8.9-5.9c1.7,0,3.4,0.2,5.1,0.2c2.3,0.1,3-0.8,2.7-2.9c-0.2-1.2-0.2-2.5-0.7-3.6
		c-0.3-0.7-1.2-1.4-2-1.6c-4.1-0.9-8.3-1.8-12.5-2.3c-6.3-0.8-12.6-1.3-19-2c-2-0.2-2.4,0.5-2.5,2.3c-0.2,6.2-0.5,12.3-0.8,18.7
		c2.1,0.7,3.7,2.4,3.3,5c-0.3,2.3-1.9,3.7-4.5,4.2c-0.2,4.5-0.4,9.1-0.6,14.1c0.8-0.8,1.5-1.3,2-1.9c3.1-3.7,10.2-3.1,13.9-0.1
		c3.5,2.9,4.6,8.3,2.4,12.9c-1.9,3.9-4.9,6.8-8.3,9.1c-4.9,3.3-9.6,6.8-12.8,12.3c-0.7-1.1-1.3-2-1.8-2.9
		c-2.5-4.6-6.6-7.6-10.3-11.1c-3.6-3.3-6.6-7-6.9-12.1c-0.4-6.5,4.3-11.4,10.6-11.6c4.4-0.1,7.4,1.9,10,5.7c0.1-1,0.2-1.6,0.3-2.2
		c0.1-2.7,0.1-5.4,0.4-8c0.2-2.3,0.7-4.2-2.2-5.7c-2.8-1.5-1.7-6.3,1.3-7.3c1.4-0.5,1.9-1.1,2-2.6c0.2-5.6,0.6-11.2,1-16.8
		c0.1-1.8-0.7-2.2-2.2-1.9s-3.1,0.7-4.6,1c-3.5,0.7-7.4-1.7-8.6-5.7c2.9-0.4,5.6-1.1,8.4-1.1c7.4-0.1,14.8-0.3,22.1,0.3
		c11.9,1.1,23.6,3.8,35,7.5c4.4,1.4,8.6,3,13,4.5c0.5,0.2,1,0.3,1,0.3c1-2,1.4-4.2,2.8-5.4c1.7-1.5,4-2.2,6.1-3
		c1.5-0.6,2.4,0.3,2.5,1.9c0.1,3.6-1.9,6.6-6.1,8.6c11.8,5.6,23.8,9.6,36.5,8.6c0.6-2.6,0.7-5,1.7-7.1c1.8-3.7,5.5-4.9,9.3-5.7
		c1.3-0.3,1.9,0.9,1.8,2.2c-0.1,4-0.8,7.7-4.6,9.9c-0.3,0.2-0.7,0.4-0.9,0.9c5.9,0,11.8,0.8,17.5-1.3c-0.2-2-0.7-4-0.7-5.9
		c0-3.6,2.6-6.7,6-7.4c0.7-0.1,2.1,0.7,2.4,1.5c1.3,2.8,1.1,5.7-0.1,8.5c-0.2,0.5-0.6,1-1.1,2c4-1.7,7.7-3.3,11.3-4.9
		c0.5-0.2,0.8-1.1,1.1-1.7c2.9-5.5,8.9-7.7,14.7-5.5c1.4,0.5,1.7,1.3,1.3,2.7c-1.1,3.4-5.1,6.2-9.6,6.3c-2.7,0.1-5.2,0.6-7.7,1.8
		c-9.8,4.6-20.2,7.3-31.1,7.4c-6,0.1-12.1-0.7-17.6-1.1c3.1,3.7,33.9,17,39.9,16.9c2.3-6.9,8.8-10.8,14.8-8.9c0.3,2.5-1,4.7-2.4,6.5
		c-1.4,1.8-3.6,3-5.5,4.5c3.7,0.9,7.4,1.9,11.2,2.7c0.6,0.1,1.7-0.8,2-1.4c3-5.5,7.9-7.6,13.9-7.4c1.3,0,2.5,0.5,3.8,0.9
		c1.5,0.4,1.4,1.2,0.5,2.2c-2.4,2.9-5.4,5.1-9,6.2c-0.7,0.2-1.3,0.5-2.3,0.9c6.4,1.9,27.9,2,31.7,0.5c-1.3-1.2-2.6-2.3-3.7-3.7
		c-2.4-2.9-2.4-6-0.4-9.1c3.1-4.9,3.2-5.3,8.3-1c3.5,3,3.7,7.5,1,12.2c-0.3,0.5-0.6,0.9-1.1,1.8c1.2-0.1,2.2,0,3-0.2
		c2.7-0.7,5.4-1.4,8-2.4c2.9-1.1,1.9-3.9,2.1-6.1c0.2-1.7-0.5-3.3-1.6-4.9c-3.8-5.5-2.6-10.4,3-13.8c1.1-0.7,1.9-0.7,2.8,0.3
		c3.9,4.3,3.8,9-0.7,13.4c-1.2,1.2-1.8,2.2-1.6,3.9c0.2,1.7,0.2,3.5,0.3,5.4c0.6-0.1,1,0,1.3-0.2c3-1.5,6.1-2.9,9-4.5
		c0.6-0.3,1-1.3,1-2.1c0.5-5.2,3.8-8.4,9.1-8.8c0.8-0.1,1.6-0.3,2.4-0.2c0.7,0,1.5,0.4,2.2,0.5c0.5,3-1.3,7.3-4,8.9
		c-1.7,1-3.6,1.5-5.4,2.3c-1,0.5-2,1-2.8,2c2.3,0.1,4.6,0,6.8,0.4c3.1,0.5,5.5,3.9,5.4,7.1c-0.1,3.3-0.3,6.7-0.4,10
		c-0.4,11.8-0.9,23.6-1.3,35.3c-0.1,2.1-0.1,4.3,0.1,6.4c0,0.6,0.6,1.3,1.1,1.6c2.1,1.1,3.1,2.9,2.9,5c-0.2,1.9-1.3,3.5-3.6,4
		c-0.4,0.1-1,1.1-1,1.7c-0.3,4.1-0.4,8.2-0.6,12.9c1.4-0.6,2.4-0.7,2.9-1.3c5.2-5.1,16.7-1.3,17.7,7.1c0.5,4.7-1,8.9-4.5,12
		c-4,3.6-8.4,6.8-12.4,10.5c-1.8,1.7-3.2,3.9-4.9,5.9c-0.3-0.4-0.7-0.7-0.9-1.2c-2.5-4.7-6.3-8.2-10.3-11.6
		c-3.5-2.9-6.7-6.1-8.3-10.5c-2.4-6.8-0.3-11.3,5.6-14.8c2.5-1.5,8.2-0.7,10.7,1.4c1,0.8,2,1.7,3.6,2.5c-0.2-1.2-0.6-2.4-0.6-3.6
		c0.1-1.3,0.7-2.6,0.8-4c0.2-2,0.1-4,0-5.9c0-0.5-0.6-1.2-1.1-1.4c-1.9-0.9-3-2.2-2.9-4.3c0.1-2.2,1.1-3.8,3.2-4.5
		c1-0.3,1.4-0.8,1.4-1.9c0.2-8.8,0.6-17.7,0.8-26.5c0.2-7.2,0.4-14.4,0.6-21.6c0-0.5,0-0.9,0.1-1.6c-1.8,0.1-3.5,0.3-5.1,0.1
		c-3.7-0.4-6.3-2.6-8.2-5.6c-0.9-1.5-1.8-1.8-3.5-1.1c-4.8,2.1-9.6,3.9-14.9,6c1.1,0.3,1.8,0.5,2.5,0.6c3.8,0.8,6.5,3.9,6.5,7.4
		c0,1.4-0.7,2.1-2,1.9c-2.8-0.5-5.6-1.2-8.4-1.8c-0.6-0.2-1.2-0.5-2.1-0.9c-0.1,2-0.2,3.8-0.2,5.5c0,0.4,0.3,0.9,0.6,1.2
		c4.8,3.6,4.5,6.9-0.8,9.3c-0.2,4.7-0.4,9.3-0.7,14.4c2.5-2.3,4.7-4.1,7.9-4.5c5.6-0.6,13.4,4.4,12,12.6c-0.9,5.3-4.2,8.9-8.2,11.8
		c-5,3.7-10.1,7.2-13.4,13.1c-1.4-2-2.4-4-3.8-5.5c-3.4-3.6-7.1-7-10.7-10.4c-4.3-4.2-6.7-9.1-5-15.1c2.1-7.5,12.4-9.9,17.8-4.2
		c0.7,0.8,1.4,1.6,2.3,2.6c0.2-5,0.4-9.8,0.7-14.7c-0.5-0.2-1-0.5-1.6-0.7c-1.6-0.9-2.7-2.1-2.7-4c0-2.1,0.9-3.7,2.8-4.4
		c1.5-0.5,1.5-1.4,1.8-2.7c0.8-3.5-0.8-6.4-2.3-9.2c-0.3-0.5-1.6-0.7-2.3-0.7c-3.3,0.2-6.5,0.5-9.8,0.8c-1.2,0.1-2.5,0.2-3.8,0.5
		c3.5,2.1,5,5.1,4.7,9c-0.2,2.4-1,3-3.4,2.6c-6.7-1.3-9.4-4.6-9.3-11.8c-3.9-0.2-7.8-0.4-11.9-0.5c-0.1,0.6-0.2,1.2-0.2,1.9
		c-0.5,11.6-1,23.2-1.6,34.8c-0.1,1.3,0,2.1,1.5,2.7c2,0.8,2.7,2.5,2.6,4.7c-0.2,2-1.3,3.3-3.1,3.9c-1.3,0.4-1.3,1-1.3,2.2
		c0.1,3.5-0.2,7-0.3,10.5c0,0.7-0.1,1.3-0.1,1.8c2.2-1.3,4.2-2.8,6.5-3.7c5.8-2.2,14,3.7,13.5,10.6c-0.4,6.2-3.9,10-8.2,13.6
		c-3.4,2.8-6.8,5.5-10.1,8.4C374.4-32.7,373.4-31,372.1-29.3z M264.3-163.4c14.1,7.8,24.9,18.7,34.6,31c-0.5-2.6-0.5-4.9,2-6.4
		C294.5-146.7,268.9-164.3,264.3-163.4z M374.8-78.7c1.9,0.1,3.5-1.1,3.7-2.8c0.1-1.4-1.6-3.4-3.1-3.6c-1.4-0.1-3.4,1.7-3.6,3.1
		C371.7-80.5,373.2-78.9,374.8-78.7z M336.5-117.8c-0.1,1.9,1,3.2,2.8,3.3c1.6,0.1,3.3-1.4,3.4-2.9c0.1-1.8-1.2-3.3-3.1-3.3
		C337.8-120.8,336.7-119.8,336.5-117.8z M245.1-84.7c-0.1,2,0.7,3,2.6,3.2c1.9,0.1,3.5-1.1,3.7-2.8c0.1-1.6-1.3-3.2-2.9-3.3
		C246.4-87.8,245.2-86.7,245.1-84.7z M315.4-49.6c0.1-1.7-1.4-3.2-3-3.3c-1.8-0.1-3.2,1.3-3.3,3.2c-0.1,1.8,1.2,3.1,3,3.2
		C313.9-46.4,315.3-47.7,315.4-49.6z M450.2-67.9c2.2,0.1,3.5-1,3.7-2.9c0.1-1.2-1.7-3.1-3-3.1c-1.5-0.1-3.4,1.6-3.4,3
		C447.5-69.1,448.5-67.9,450.2-67.9z M415.7-106c1.8,0.1,3.4-1.3,3.4-3c0-1.5-1.5-3-3-3c-1.8,0-3.2,1.3-3.3,2.9
		C412.7-107.1,413.6-106,415.7-106z M209.2-150.7c-1.9-0.1-3.2,1.1-3.3,2.8c-0.1,1.6,1.1,3,2.7,3.1c1.8,0.1,3.4-1.1,3.5-2.7
		C212.2-149.6,211.2-150.7,209.2-150.7z"/>
</g>
<g id="XMLID_6_" class="st1">
	<image style="overflow:visible;" width="273" height="273" xlink:href="1F0BD9B5.png"  transform="matrix(1 0 0 1 192.88 149.88)">
	</image>
	<g>
		<g>
			
				<linearGradient id="XMLID_22_" gradientUnits="userSpaceOnUse" x1="200.8381" y1="-109.9695" x2="372.5171" y2="-109.9695" gradientTransform="matrix(1 0 0 -1 0 216)">
				<stop  offset="0" style="stop-color:#BFEAFF"/>
				<stop  offset="1" style="stop-color:#FF94ED"/>
			</linearGradient>
			<path id="XMLID_61_" class="st7" d="M286.7,276.8c1.4-1.9,2.6-3.6,3.9-5.3c11.7-15.8,29.5-22.2,47.8-17.4
				c17.2,4.5,31.2,20.6,33.4,38.8c2.3,18.3-2.9,34.4-15.4,47.9c-4.6,5-9.9,9.3-15.1,13.7c-17.2,14.2-34.5,28.3-51.7,42.4
				c-1,0.8-1.9,1.6-3,2.5c-5.2-4.3-10.2-8.7-15.4-12.9c-14.4-11.7-28.9-23.4-43.3-35c-13-10.5-22.9-22.9-26-39.8
				c-3.2-17.6,0.7-33.4,13.5-46.1c19.5-19.4,52-16.3,68,6.3C284.4,273.3,285.5,274.9,286.7,276.8z"/>
			
				<linearGradient id="XMLID_24_" gradientUnits="userSpaceOnUse" x1="288.7962" y1="-19.0703" x2="442.0063" y2="-19.0703" gradientTransform="matrix(1 0 0 -1 0 216)">
				<stop  offset="0" style="stop-color:#BFEAFF"/>
				<stop  offset="1" style="stop-color:#FF94ED"/>
			</linearGradient>
			<path id="XMLID_59_" class="st8" d="M291.7,254.7c-1.1-14.8-3-28.7-2.9-42.7c0.1-23.8,16.9-45.5,38.5-51.6
				c33.3-9.5,63.6,18.8,56.6,52.7c-0.2,1.1-0.4,2.2-0.7,3.9c2.5-0.3,4.7-0.5,7-0.8c19.4-2.7,34.9,4,45.1,20.7
				c10.2,16.8,8.7,34.2-2.2,50.1c-11.7,17.1-28.8,24.7-49.4,24.6c-0.3,0-0.7-0.2-1.3-0.4c2.8-24.7-4.2-45.8-25.5-59.7
				C335.4,237.4,313.6,239.6,291.7,254.7z"/>
		</g>
	</g>
</g>
<g id="XMLID_7_" class="st9">
	
		<linearGradient id="XMLID_25_" gradientUnits="userSpaceOnUse" x1="844.4357" y1="320.7611" x2="920.6159" y2="320.7611" gradientTransform="matrix(1 0 0 -1 0 216)">
		<stop  offset="0" style="stop-color:#BFEAFF"/>
		<stop  offset="1" style="stop-color:#FF94ED"/>
	</linearGradient>
	<path id="XMLID_9_" class="st10" d="M882.5-126.6c0.6-0.8,1.2-1.6,1.7-2.3c5.2-7,13.1-9.9,21.2-7.7c7.6,2,13.8,9.1,14.8,17.2
		s-1.3,15.2-6.8,21.2c-2,2.2-4.4,4.1-6.7,6.1c-7.6,6.3-15.3,12.5-23,18.8c-0.4,0.3-0.8,0.7-1.3,1.1c-2.3-1.9-4.5-3.9-6.8-5.7
		c-6.4-5.2-12.8-10.4-19.2-15.5c-5.8-4.6-10.2-10.2-11.5-17.7c-1.4-7.8,0.3-14.8,6-20.5c8.6-8.6,23.1-7.2,30.2,2.8
		C881.5-128.2,882-127.4,882.5-126.6z"/>
	
		<linearGradient id="XMLID_35_" gradientUnits="userSpaceOnUse" x1="883.4" y1="361.1103" x2="951.4504" y2="361.1103" gradientTransform="matrix(1 0 0 -1 0 216)">
		<stop  offset="0" style="stop-color:#BFEAFF"/>
		<stop  offset="1" style="stop-color:#FF94ED"/>
	</linearGradient>
	<path id="XMLID_8_" class="st11" d="M884.7-136.4c-0.5-6.6-1.3-12.8-1.3-18.9c0.1-10.6,7.5-20.2,17.1-22.9
		c14.8-4.2,28.2,8.3,25.1,23.4c-0.1,0.5-0.2,1-0.3,1.7c1.1-0.1,2.1-0.2,3.1-0.4c8.6-1.2,15.5,1.8,20,9.2c4.5,7.5,3.9,15.2-1,22.2
		c-5.2,7.6-12.8,11-21.9,10.9c-0.2,0-0.3-0.1-0.6-0.2c1.3-11-1.9-20.3-11.3-26.5C904.1-144.1,894.5-143.2,884.7-136.4z"/>
</g>
<g id="XMLID_3_" class="st9">
	
		<image style="overflow:visible;opacity:0.75;enable-background:new    ;" width="496" height="100" id="XMLID_34_" xlink:href="1F0BD9BB.png"  transform="matrix(1 0 0 1 343 35)">
	</image>
	<g id="XMLID_21_">
		
			<linearGradient id="XMLID_37_" gradientUnits="userSpaceOnUse" x1="352.0402" y1="148.5138" x2="815.9598" y2="127.4862" gradientTransform="matrix(1 0 0 -1 0 216)">
			<stop  offset="0" style="stop-color:#BFEAFF"/>
			<stop  offset="1" style="stop-color:#FF94ED"/>
		</linearGradient>
		<path id="XMLID_29_" class="st12" d="M781.9,112.5H386.1c-19.1,0-34.5-15.4-34.5-34.5l0,0c0-19.1,15.4-34.5,34.5-34.5h395.8
			c19.1,0,34.5,15.4,34.5,34.5l0,0C816.4,97.1,801,112.5,781.9,112.5z"/>
	</g>
</g>
<g id="XMLID_10_">
	<path id="XMLID_11_" class="st13" d="M394.7,72.4v-2.3l4.9-0.9v1.6h2.4v1.6h-2.4v18.1l-4.9-3.1V78l-5.1,3c-0.3,0.6-0.6,1.1-1.1,1.5
		l-5.3-2.3c0.6-0.6,1.1-1.2,1.5-1.9c0.4-0.7,0.6-1.4,0.6-2.1c0-0.9-0.4-1.7-1.1-2.4c-0.8-0.8-2.1-1.4-3.9-1.9l1.2-1.3
		c1.5,0.4,2.9,1,4,1.6l-0.4-1c0.3-0.1,0.6-0.2,1-0.2c0.4-0.1,0.7-0.1,1.1-0.1c0.4,0,0.7-0.1,1.1-0.1c0.3,0,0.6,0,0.9,0s0.6,0,1,0.1
		c0.4,0,0.9,0.1,1.4,0.2s1,0.3,1.6,0.5C393.6,71.7,394.1,72,394.7,72.4z M393.2,75.2c-1.1-1-2.2-1.5-3.5-1.5c-0.6,0-1.1,0.1-1.7,0.3
		c1,1,1.6,2.1,1.9,3.2L393.2,75.2z"/>
	<path id="XMLID_14_" class="st13" d="M408.7,90.5l-5-3.2V74.7c-0.3-0.8-0.6-1.3-1-1.7c-0.4-0.4-0.8-0.6-1.3-0.6v-1.6h0.5
		c0.5,0,1.1,0.1,1.8,0.4v-1.1l5-0.9v1.6h2.4v1.6h-2.4V90.5z"/>
	<path id="XMLID_16_" class="st13" d="M431.6,72.3h-21.2v-1.6h21.2V72.3z M424.5,85.6c0-1.3,0-2.5,0-3.4s0-1.6,0-2.2s0-1,0-1.4
		c0-0.3-0.1-0.6-0.1-0.9c-0.1-0.2-0.1-0.4-0.2-0.6c-0.1-0.2-0.2-0.4-0.4-0.6c-0.6-0.8-1.2-1.1-1.9-1.1c-0.3,0-0.6,0.1-1,0.3
		l-0.9,0.6c0.5,0.2,1,0.5,1.5,0.9c0.4,0.4,0.6,0.9,0.6,1.4c0,0.4-0.1,0.7-0.4,1.1c-0.2,0.4-0.5,0.7-0.9,1c-0.4,0.3-0.8,0.6-1.3,0.7
		c-0.5,0.2-1,0.3-1.6,0.3c-0.3,0-0.6,0-0.9-0.1c-0.3-0.1-0.6-0.2-0.9-0.4c-0.3-0.2-0.5-0.3-0.7-0.5c-0.2-0.2-0.3-0.4-0.3-0.6
		s0.1-0.5,0.2-0.8c0.1-0.3,0.2-0.7,0.2-1.1c0-0.7-0.2-1.4-0.5-2.2l3.2-2.9c1.3-0.3,2.7-0.5,3.9-0.5c0.7,0,1.3,0,1.9,0.1
		c0.6,0.1,1.1,0.2,1.6,0.4c0.5,0.2,1,0.5,1.4,0.8c0.4,0.3,0.8,0.8,1.3,1.3c0.5,0.7,0.9,1.4,1,2v13.6l-0.5-0.4
		c-2.9-2.1-6.4-3.1-10.6-3.1c-2.4,0-4.3,0.3-5.7,1l2-5.6c2.1,0.1,3.9,0.4,5.5,0.9C421.6,84.1,423.1,84.7,424.5,85.6z"/>
	<path id="XMLID_20_" class="st13" d="M433.3,81.9v-2.7h10.9v2.7H433.3z"/>
	<path id="XMLID_23_" class="st13" d="M458.5,72.4v-2.3l4.9-0.9v1.6h2.4v1.6h-2.4v18.1l-4.9-3.1V78l-5.1,3c-0.3,0.6-0.6,1.1-1.1,1.5
		l-5.3-2.3c0.6-0.6,1.1-1.2,1.5-1.9c0.4-0.7,0.6-1.4,0.6-2.1c0-0.9-0.4-1.7-1.1-2.4c-0.8-0.8-2.1-1.4-3.9-1.9l1.2-1.3
		c1.5,0.4,2.9,1,4,1.6l-0.4-1c0.3-0.1,0.6-0.2,1-0.2c0.4-0.1,0.7-0.1,1.1-0.1s0.7-0.1,1.1-0.1c0.3,0,0.6,0,0.9,0s0.6,0,1,0.1
		c0.4,0,0.9,0.1,1.4,0.2s1,0.3,1.6,0.5C457.4,71.7,458,72,458.5,72.4z M457,75.2c-1.1-1-2.2-1.5-3.5-1.5c-0.6,0-1.1,0.1-1.7,0.3
		c1,1,1.6,2.1,1.9,3.2L457,75.2z"/>
	<path id="XMLID_28_" class="st13" d="M472.5,90.5l-5-3.2V74.7c-0.3-0.8-0.6-1.3-1-1.7c-0.4-0.4-0.8-0.6-1.3-0.6v-1.6h0.5
		c0.5,0,1.1,0.1,1.8,0.4v-1.1l5-0.9v1.6h2.4v1.6h-2.4V90.5z"/>
	<path id="XMLID_36_" class="st13" d="M495.4,72.3h-21.2v-1.6h21.2V72.3z M488.3,85.6c0-1.3,0-2.5,0-3.4s0-1.6,0-2.2s0-1,0-1.4
		c0-0.3-0.1-0.6-0.1-0.9c-0.1-0.2-0.1-0.4-0.2-0.6s-0.2-0.4-0.4-0.6c-0.6-0.8-1.2-1.1-1.9-1.1c-0.3,0-0.6,0.1-1,0.3l-0.9,0.6
		c0.5,0.2,1,0.5,1.5,0.9c0.4,0.4,0.6,0.9,0.6,1.4c0,0.4-0.1,0.7-0.4,1.1c-0.2,0.4-0.5,0.7-0.9,1s-0.8,0.6-1.3,0.7
		c-0.5,0.2-1,0.3-1.6,0.3c-0.3,0-0.6,0-0.9-0.1s-0.6-0.2-0.9-0.4c-0.3-0.2-0.5-0.3-0.7-0.5s-0.3-0.4-0.3-0.6s0.1-0.5,0.2-0.8
		s0.2-0.7,0.2-1.1c0-0.7-0.2-1.4-0.5-2.2l3.2-2.9c1.3-0.3,2.7-0.5,3.9-0.5c0.7,0,1.3,0,1.9,0.1s1.1,0.2,1.6,0.4
		c0.5,0.2,1,0.5,1.4,0.8s0.8,0.8,1.3,1.3c0.5,0.7,0.9,1.4,1,2v13.6l-0.5-0.4c-2.9-2.1-6.4-3.1-10.6-3.1c-2.4,0-4.3,0.3-5.7,1l2-5.6
		c2.1,0.1,3.9,0.4,5.5,0.9S487,84.7,488.3,85.6z"/>
	<path id="XMLID_39_" class="st13" d="M494.8,70.7h0.5c0.5,0,1,0.1,1.6,0.3l0.2,0.1v-0.5c0-0.1,0-0.3,0-0.4s0-0.3,0-0.5
		c0-0.4,0-0.9,0.1-1.3c0-0.5,0.1-0.9,0.1-1.3c0-0.7-0.1-1.2-0.2-1.7c-0.2-0.5-0.4-0.8-0.8-1.1c-0.6-0.2-1.1-0.4-1.6-0.5
		s-1-0.1-1.5-0.1c-0.6,0-1.1,0.1-1.6,0.2s-0.9,0.2-1.2,0.3c-0.3,0.1-0.7,0.3-1,0.5v0.6c0,0.3,0.1,0.5,0.4,0.7s0.7,0.4,1.2,0.7
		c0.5,0.3,1.2,0.7,2,1.2s1.7,1.3,2.7,2.2h-3.6c-0.3-0.4-0.8-0.9-1.3-1.3s-1.1-0.9-1.7-1.3s-1-0.9-1.5-1.3c-0.4-0.4-0.6-0.9-0.6-1.3
		c0-0.1,0-0.2,0-0.2c0-0.1,0-0.1,0-0.2s0.1-0.3,0.3-0.4c0.2-0.1,0.6-0.4,1.2-0.8c0.6-0.3,1.4-0.7,2.3-0.9s2.1-0.4,3.5-0.4
		c1.8,0,3.3,0.2,4.4,0.5s2,0.8,2.7,1.3c0.6,0.5,1.1,1,1.3,1.6c0.2,0.6,0.4,1.1,0.4,1.6c0,0.4,0,0.8-0.1,1.2
		c-0.1,0.4-0.2,0.8-0.3,1.1l-0.2,1v0.4h2.4v1.6h-2.4v18.2l-4.9-3.2V74.7c-0.3-0.9-0.7-1.4-1-1.7c-0.3-0.3-0.7-0.5-1-0.6h-0.3v-1.7
		H494.8z"/>
	<path id="XMLID_41_" class="st13" d="M524,85v-8l-0.1-0.8c0,0-0.1-0.2-0.2-0.5c-0.1-0.3-0.3-0.5-0.5-0.8c-0.2-0.3-0.5-0.6-0.8-0.8
		c-0.3-0.2-0.7-0.4-1-0.4c-0.4,0-0.7,0.1-1,0.3c-0.3,0.2-0.4,0.3-0.4,0.2l-0.5,0.4c0.5,0.2,1,0.5,1.5,0.9c0.4,0.4,0.7,0.9,0.7,1.5
		c0,0.4-0.1,0.7-0.3,1.1c-0.2,0.4-0.5,0.7-0.9,1.1c-0.4,0.3-0.8,0.6-1.4,0.8c-0.5,0.2-1.1,0.3-1.7,0.3c-0.2,0-0.5,0-0.8-0.1
		s-0.6-0.2-0.9-0.3c-0.3-0.1-0.6-0.3-0.8-0.5c-0.2-0.2-0.3-0.4-0.3-0.7c0-0.2,0.1-0.5,0.2-0.8c0.1-0.3,0.2-0.7,0.2-1.2
		c0-0.3,0-0.7-0.1-1c-0.1-0.4-0.2-0.8-0.4-1.2l3.3-3c0.7-0.2,1.4-0.3,2.1-0.4s1.3-0.1,1.9-0.1c0.7,0,1.3,0,1.8,0.1s1,0.2,1.3,0.3
		c0.7,0.2,1.3,0.5,1.8,1c0.5,0.4,1,0.9,1.3,1.4c0.3,0.5,0.6,0.9,0.8,1.3c0.2,0.4,0.3,0.6,0.3,0.7v15.1l-0.5-0.4
		c-1.6-1.1-3.3-1.9-5-2.4c-1.8-0.5-3.7-0.7-5.9-0.7c-2.3,0-4,0.4-5.1,1.3l1.5-6.4c0,0,0.1,0,0.3,0c0.3,0,0.8,0,1.5,0.1
		c0.7,0.1,1.4,0.2,2.3,0.5c0.9,0.2,1.8,0.5,2.9,0.9C521.9,83.8,522.9,84.3,524,85z"/>
	<path id="XMLID_43_" class="st13" d="M545.7,84.8V70.1l4.8-1v1.6h2.4v1.6h-2.4v18.2l-1-0.8c-1.1-0.9-2.2-1.6-3.3-2.2
		c-1.1-0.6-2.3-1.1-3.5-1.5s-2.5-0.7-3.8-1c-1.3-0.2-2.8-0.4-4.3-0.5h-0.1l-2.3-4.4c0.8,0.1,1.5,0.2,2,0.2c0.7,0,1.4-0.1,2.1-0.2
		c0.7-0.2,1.3-0.4,1.8-0.7s1-0.7,1.3-1.2s0.5-1.1,0.6-1.8c-0.3,0.4-0.9,0.9-1.5,1.3c-0.7,0.4-1.5,0.6-2.4,0.6c-0.4,0-0.7,0-1-0.1
		s-0.5-0.1-0.7-0.2l-2.9-2.3c0.2-0.5,0.4-0.9,0.5-1.3c0.1-0.4,0.1-0.7,0.1-1s0-0.5-0.1-0.7c0-0.2-0.1-0.4-0.1-0.6
		c0-0.3,0.1-0.5,0.2-0.7c0.2-0.2,0.4-0.4,0.6-0.5c0.2-0.1,0.5-0.2,0.7-0.3c0.2-0.1,0.4-0.1,0.6-0.1c0.4,0,0.8,0.1,1.1,0.2
		c0.4,0.2,0.7,0.4,1,0.6c0.3,0.2,0.5,0.5,0.7,0.9c0.2,0.3,0.3,0.7,0.3,1.1s-0.1,0.7-0.3,1.1c-0.2,0.3-0.4,0.6-0.7,0.7
		c1-0.2,1.7-0.6,2.1-1.2s0.6-1.3,0.6-2.2c0-0.1,0-0.3,0-0.4s0-0.3,0-0.4h0.2c0.4,0.1,0.8,0.2,1.3,0.6c0.5,0.3,1,0.7,1.5,1.3
		c0.5,0.5,0.9,1.2,1.2,1.9c0.3,0.7,0.5,1.5,0.5,2.4c0,1.1-0.3,2.2-0.8,3.1s-1.2,1.8-2.1,2.5c0.7,0.3,1.3,0.5,1.9,0.8
		c0.6,0.3,1.3,0.6,1.9,0.9L545.7,84.8z"/>
	<path id="XMLID_45_" class="st13" d="M565.9,76.1v-3.8h-13.6v-1.6h13.6v-0.6l4.9-0.9v1.6h2.4v1.6h-2.4v18.2l-4.9-3.2v-3.8
		c-0.2-0.8-0.4-1.4-0.8-2c-0.3-0.6-0.7-1.1-1.2-1.5s-1-0.7-1.5-0.9c-0.5-0.2-1.1-0.3-1.6-0.3c-0.4,0-0.7,0.1-1.1,0.2
		c-0.4,0.1-0.8,0.3-1.1,0.5c-0.3,0.2-0.6,0.5-0.8,0.8s-0.3,0.6-0.3,0.9c0,0.2,0,0.3,0,0.3l0.1,0.1c0.2-0.4,0.5-0.8,1-1.1
		c0.5-0.3,1-0.5,1.6-0.5c0.2,0,0.5,0.1,0.8,0.2s0.7,0.3,1,0.6c0.3,0.3,0.6,0.6,0.8,1s0.3,0.9,0.3,1.5c0,0.4-0.1,0.9-0.3,1.3
		s-0.5,0.8-0.8,1.2c-0.3,0.4-0.8,0.7-1.3,0.9c-0.5,0.2-1,0.4-1.6,0.4c-0.2,0-0.5-0.1-0.7-0.3c-0.2-0.2-0.5-0.5-0.8-0.7
		c-0.3-0.2-0.8-0.5-1.3-0.8s-1.3-0.4-2.2-0.5v-4.6c0-0.4,0.2-0.8,0.5-1.5c0.3-0.6,0.8-1.2,1.4-1.8c0.6-0.6,1.3-1.1,2.2-1.5
		c0.9-0.4,1.9-0.6,3.1-0.6C562.9,74.8,564.4,75.2,565.9,76.1L565.9,76.1z"/>
	<path id="XMLID_47_" class="st13" d="M579.3,70.7h0.5c0.5,0,1.1,0.1,1.6,0.3l0.2,0.1v-0.5c-0.3-0.4-0.5-0.9-0.7-1.4
		c-0.2-0.5-0.3-1-0.3-1.6c0-0.5,0.1-1.1,0.3-1.6c0.2-0.5,0.6-1,1.1-1.5s1.2-0.9,2.1-1.3c0.9-0.4,2-0.7,3.3-0.9
		c0.6-0.1,1.1-0.2,1.7-0.2c0.6-0.1,1.1-0.1,1.6-0.1c1.1,0,2.2,0.1,3.2,0.3s1.8,0.4,2.5,0.6c0.7,0.2,1.3,0.4,1.7,0.6
		c0.4,0.2,0.6,0.2,0.6,0.2l-2,1.5c-0.4-0.2-0.9-0.3-1.3-0.4c-0.4-0.1-0.8-0.2-1.4-0.3c-0.5-0.1-1.1-0.2-1.7-0.2
		c-0.5,0-1.1,0.1-1.8,0.2s-1.3,0.4-1.9,0.7c-0.6,0.3-1.1,0.7-1.6,1.2c-0.4,0.5-0.6,1.1-0.6,1.8c0,0.5,0.1,0.9,0.2,1.4
		c0.2,0.4,0.3,0.8,0.4,1h1.7v1.6h-2.4v18.2l-4.9-3.2V74.6c-0.2-0.5-0.4-1-0.7-1.3c-0.2-0.3-0.5-0.5-0.7-0.7s-0.5-0.3-0.7-0.4H579
		v-1.5H579.3z"/>
	<path id="XMLID_49_" class="st13" d="M601.9,76.1v-3.8h-13.6v-1.6h13.6v-0.6l4.9-0.9v1.6h2.4v1.6h-2.4v18.2l-4.9-3.2v-3.8
		c-0.2-0.8-0.4-1.4-0.8-2c-0.4-0.6-0.7-1.1-1.2-1.5s-1-0.7-1.5-0.9c-0.5-0.2-1.1-0.3-1.6-0.3c-0.4,0-0.7,0.1-1.1,0.2
		c-0.4,0.1-0.8,0.3-1.1,0.5c-0.3,0.2-0.6,0.5-0.8,0.8s-0.3,0.6-0.3,0.9c0,0.2,0,0.3,0,0.3l0.1,0.1c0.2-0.4,0.5-0.8,1-1.1
		c0.5-0.3,1-0.5,1.6-0.5c0.2,0,0.5,0.1,0.8,0.2s0.7,0.3,1,0.6c0.3,0.3,0.6,0.6,0.8,1s0.3,0.9,0.3,1.5c0,0.4-0.1,0.9-0.3,1.3
		s-0.5,0.8-0.8,1.2c-0.3,0.4-0.8,0.7-1.3,0.9c-0.5,0.2-1,0.4-1.6,0.4c-0.2,0-0.5-0.1-0.7-0.3c-0.2-0.2-0.5-0.5-0.8-0.7
		c-0.3-0.3-0.8-0.5-1.3-0.8s-1.3-0.4-2.2-0.5v-4.6c0-0.4,0.2-0.8,0.5-1.5c0.3-0.6,0.8-1.2,1.4-1.8c0.6-0.6,1.3-1.1,2.2-1.5
		c0.9-0.4,1.9-0.6,3.1-0.6C598.9,74.8,600.4,75.2,601.9,76.1L601.9,76.1z"/>
	<path id="XMLID_51_" class="st13" d="M624,82.4l-0.2,0.1c-0.8,0.2-1.7,0.3-2.5,0.3s-1.6-0.1-2.3-0.3c-0.4-0.2-0.9-0.4-1.3-0.6
		c-0.4-0.3-0.9-0.6-1.3-0.9c-0.4-0.4-0.7-0.7-1-1.2c-0.3-0.4-0.4-0.9-0.4-1.4c0-0.8,0.1-1.5,0.3-2.1c0.2-0.7,0.4-1.2,0.7-1.8
		c0.3-0.5,0.5-1,0.8-1.3c0.3-0.4,0.5-0.6,0.7-0.8h-8.9v-1.6h28.7v1.6h-12.9c0.1,0.6,0.3,1.1,0.5,1.4c0.3,0.4,0.5,0.6,0.9,0.9
		s0.7,0.4,1.1,0.4c0.4,0.1,0.8,0.1,1.2,0.1s0.7,0,1.1-0.1s0.6-0.1,0.8-0.1l4.9-1.5v16.9l-5.2-3.3v-9.6c-0.7,0.1-1.4,0.2-2.2,0.2
		c-2.4-0.2-4.3-1-5.6-2.6c-0.5,0.8-0.9,1.5-1.2,2.2s-0.5,1.4-0.6,2.1c0.4,0.1,0.8,0.2,1.2,0.2s0.8,0,1.2-0.1s0.7-0.2,1-0.3
		c0.3-0.1,0.5-0.2,0.7-0.3c0.2-0.1,0.3-0.1,0.3-0.1l3.8,1.6c0.1,0.4,0.1,0.7,0.2,1.1c0,0.3,0.1,0.7,0.1,1c0,1.1-0.2,2.1-0.7,3
		c-0.4,0.9-1.1,1.7-1.8,2.4c-0.8,0.7-1.7,1.2-2.8,1.6s-2.3,0.6-3.6,0.6c-0.8,0-1.7-0.1-2.5-0.3c-0.9-0.2-1.7-0.5-2.5-0.9
		c-0.8-0.4-1.7-0.9-2.5-1.5c-0.8-0.6-1.6-1.4-2.3-2.3l2.9-7.9c0.4,1.6,0.9,2.9,1.5,3.9s1.3,1.8,1.9,2.4c0.6,0.6,1.4,1,2.1,1.2
		s1.4,0.4,2,0.4c0.5,0,1-0.1,1.5-0.2s0.9-0.3,1.2-0.6c0.4-0.2,0.6-0.5,0.8-0.9C623.9,83.1,624,82.8,624,82.4z"/>
	<path id="XMLID_53_" class="st13" d="M667.6,74.6c0.9,0.6,1.6,1.3,2.2,2.2c0.6,0.8,1,1.6,1.1,2.3v4.4c-0.8,0.1-1.4,0.3-1.9,0.5
		s-0.9,0.4-1.2,0.6c-0.3,0.2-0.6,0.4-0.8,0.5c-0.2,0.1-0.4,0.2-0.7,0.2c-1.2,0-2.1-0.3-2.7-0.9c-0.6-0.6-0.8-1.3-0.8-2.3
		c0-0.5,0.1-0.9,0.2-1.3c0.2-0.4,0.4-0.7,0.6-0.9c0.3-0.2,0.5-0.4,0.9-0.5c0.3-0.1,0.6-0.2,0.9-0.2c0.4,0,0.8,0.1,1.1,0.3
		c0.3,0.2,0.6,0.4,0.7,0.7l0.1-0.2c0-0.1,0-0.1,0.1-0.2c0-0.1,0-0.2,0-0.3c0-0.5-0.2-0.9-0.5-1.2c-0.3-0.3-0.7-0.6-1.2-0.9
		c-0.5-0.2-1-0.4-1.5-0.5s-1-0.2-1.4-0.2c-0.1,0-0.2,0-0.3,0s-0.2,0-0.3,0v13.9l-0.7-0.5c-1.1-0.9-2.3-1.6-3.5-2.2s-2.4-1-3.6-1.4
		c-1.2-0.4-2.4-0.6-3.5-0.8c-1.2-0.2-2.3-0.4-3.4-0.5l-2.6-4.9l2.1-1.4c0.7-0.4,1.4-0.9,2.3-1.5c0.9-0.5,1.7-1.1,2.7-1.6
		c0.9-0.5,1.9-1.1,2.8-1.5c0.9-0.5,1.8-0.9,2.6-1.3v-0.7h-14.2v-1.6h29.3v1.6h-10.3v0.4C664.5,73,666.3,73.6,667.6,74.6z
		 M657.5,78.6c-1,0.6-2.1,1.2-3.1,1.8s-2.1,1.3-3.2,2c1,0.2,2,0.5,3.1,0.9s2.1,0.9,3.2,1.5l0,0V78.6z"/>
	<path id="XMLID_56_" class="st13" d="M676.5,91.1l-5.2-3.7c0.5-0.1,1.1-0.3,1.6-0.6c0.5-0.3,1-0.7,1.3-1.1c0.4-0.5,0.7-1,0.9-1.6
		s0.3-1.2,0.3-1.9c0-1.1-0.3-2.2-1-3.3c-0.9-1.4-1.3-2.6-1.3-3.8c0-1.1,0.3-2.1,1-2.9H672v-1.6h10.2v1.6h-2.1
		c-0.7,0.4-1.2,0.9-1.7,1.5s-0.7,1.2-0.7,1.9c0,0.5,0.1,1,0.4,1.4l0.9,1.7c1.4,2.2,2.1,4.1,2.1,5.7
		C681.1,87.1,679.6,89.3,676.5,91.1z"/>
	<path id="XMLID_58_" class="st13" d="M688.9,90.5l-5-3.2V74.7c-0.3-0.8-0.6-1.3-1-1.7c-0.4-0.4-0.8-0.6-1.3-0.6v-1.6h0.5
		c0.5,0,1.1,0.1,1.8,0.4v-1.1l5-0.9v1.6h2.4v1.6h-2.4V90.5z"/>
	<path id="XMLID_60_" class="st13" d="M702.9,70.7c0.7,0.2,1.6,0.6,2.5,1s1.8,0.9,2.5,1.5c0.8,0.6,1.5,1.3,2,2.2
		c0.5,0.8,0.8,1.8,0.8,2.9c0,0.9-0.3,1.7-0.9,2.4c-2.2,1.2-3.8,1.8-4.9,1.8c-0.9,0-1.4-0.4-1.6-1.3c-0.1-0.4-0.3-0.9-0.6-1.4
		s-0.7-0.9-1.1-1.3c-0.4-0.4-0.9-0.7-1.5-1c-0.5-0.3-1.1-0.4-1.7-0.4c-0.5,0-0.9,0.1-1.2,0.2s-0.5,0.2-0.7,0.4
		c-0.1,0.1-0.2,0.3-0.3,0.4c0,0.1-0.1,0.2-0.1,0.3v0.1v0.1l0,0c0.5-0.5,1.1-0.7,2-0.7c0.2,0,0.5,0,0.8,0.1s0.6,0.2,0.9,0.4
		c0.3,0.2,0.5,0.5,0.7,0.8s0.3,0.7,0.3,1.2c0,0.3-0.1,0.7-0.3,1s-0.4,0.6-0.7,0.8c-0.3,0.2-0.7,0.4-1.1,0.6
		c-0.4,0.2-0.9,0.2-1.5,0.2c-0.4,0-0.7,0-1-0.1s-0.6-0.3-0.9-0.7c-0.2-0.3-0.6-0.7-1.1-1.1S693,80.3,692,80l1.1-3.5
		c0.2-0.3,0.6-0.7,1.3-1.1c0.7-0.4,1.6-0.7,2.6-0.9h0.1c0-0.1,0-0.2,0-0.3c0-0.1,0-0.2,0-0.3c0-0.5-0.1-0.8-0.4-1.1
		c-0.3-0.3-0.8-0.5-1.5-0.6h-4.9v-1.6h3.3c-0.2-0.1-0.5-0.2-0.7-0.3c-0.3-0.1-0.6-0.2-0.8-0.3l1-1c1.7,0.5,3,1.1,4.1,1.6L702.9,70.7
		L702.9,70.7z M706.1,78.3l0.5-1c0.1-0.2,0.2-0.4,0.2-0.5c0-0.2,0-0.4,0-0.6c0-0.7-0.3-1.4-0.8-2.1s-1.5-1.3-2.8-1.8h-3.8
		c0.6,0.3,1.1,0.6,1.5,0.9s0.6,0.8,0.6,1.5v0.2l0.8,0.3C703.7,75.8,705,76.9,706.1,78.3z"/>
	<path id="XMLID_63_" class="st13" d="M715.7,72.4v-2.3l4.9-0.9v1.6h2.4v1.6h-2.4v18.1l-4.9-3.1V78l-5.1,3c-0.3,0.6-0.6,1.1-1.1,1.5
		l-5.3-2.3c0.6-0.6,1.1-1.2,1.5-1.9c0.4-0.7,0.6-1.4,0.6-2.1c0-0.9-0.4-1.7-1.1-2.4s-2.1-1.4-3.9-1.9l1.2-1.3c1.5,0.4,2.9,1,4,1.6
		l-0.4-1c0.3-0.1,0.6-0.2,1-0.2c0.4-0.1,0.7-0.1,1.1-0.1c0.4,0,0.7-0.1,1.1-0.1c0.3,0,0.6,0,0.9,0c0.3,0,0.6,0,1,0.1
		c0.4,0,0.9,0.1,1.4,0.2s1,0.3,1.6,0.5C714.7,71.7,715.2,72,715.7,72.4z M714.2,75.2c-1.1-1-2.2-1.5-3.5-1.5c-0.6,0-1.1,0.1-1.7,0.3
		c1,1,1.6,2.1,1.9,3.2L714.2,75.2z"/>
	<path id="XMLID_66_" class="st13" d="M729.8,90.5l-5-3.2V74.7c-0.3-0.8-0.6-1.3-1-1.7c-0.4-0.4-0.8-0.6-1.3-0.6v-1.6h0.5
		c0.5,0,1.1,0.1,1.8,0.4v-1.1l5-0.9v1.6h2.4v1.6h-2.4V90.5z"/>
	<path id="XMLID_68_" class="st13" d="M730.7,72.3v-1.6h14v1.6h-1.5c0,0.2-0.1,0.3-0.3,0.5c-0.1,0.2-0.3,0.4-0.5,0.5
		c-0.2,0.2-0.4,0.3-0.5,0.5c-0.2,0.1-0.3,0.2-0.4,0.3c-0.4,0.3-0.9,0.8-1.4,1.3s-1,1.2-1.4,1.9c-0.4,0.8-0.8,1.7-1.1,2.7
		s-0.4,2.2-0.4,3.5c0,1,0.1,1.9,0.3,2.5s0.4,1.1,0.7,1.5s0.6,0.6,0.8,0.7s0.5,0.2,0.6,0.2h0.1l0,0c-0.3-0.4-0.4-0.8-0.4-1.2
		c0-0.5,0.2-1,0.7-1.4s1-0.5,1.7-0.5c0.2,0,0.4,0,0.7,0.1s0.5,0.2,0.8,0.4c0.3,0.2,0.5,0.5,0.7,0.8s0.3,0.7,0.3,1.2
		c0,0.2-0.1,0.5-0.2,0.9c-0.1,0.4-0.2,0.8-0.2,1.3v0.4l-4.7,1c-1.1-0.3-2.1-0.9-2.9-1.6c-0.9-0.8-1.6-1.6-2.1-2.4
		c-0.2-0.2-0.3-0.6-0.5-1s-0.3-0.9-0.5-1.5c-0.2-0.5-0.3-1.1-0.4-1.8s-0.2-1.3-0.2-1.9c0-1.4,0.2-2.8,0.6-4c0.4-1.3,1.2-2.5,2.3-3.8
		c0.4-0.5,0.7-0.8,0.8-1.1H730.7z"/>
	<path id="XMLID_70_" class="st13" d="M743.2,84.8c1.2-0.4,2.2-0.9,3-1.4s1.4-1.1,1.9-1.6c0.5-0.6,0.8-1.2,1-1.8
		c0.2-0.6,0.3-1.2,0.3-1.8c0-1.2-0.3-2.4-0.9-3.4c-0.6-1-1.3-1.9-2.2-2.5H743v-1.6h1l-0.9-0.6l1.6-1c0.5,0.2,1.1,0.5,1.6,0.7
		c0.5,0.3,1.1,0.5,1.7,0.9h16.2v1.6h-2.4v18.1l-4.9-3.1v-2.5c-0.9-1.2-1.8-2-2.7-2.3c-0.7,2.4-2.1,4.3-4.4,5.9L743.2,84.8z
		 M756.9,72.3h-6.4c0.6,0.4,1.2,0.9,1.6,1.5s0.9,1.2,1.2,1.8c0.3,0.6,0.6,1.3,0.8,1.9c0.2,0.7,0.3,1.3,0.4,1.9
		c0.7,0.2,1.5,0.5,2.4,1l0,0V72.3z"/>
	<path id="XMLID_73_" class="st13" d="M782.4,70.7v1.6h-18.9v-1.6h9.6c0.2-0.2,0.3-0.4,0.5-0.7c0.2-0.3,0.2-0.6,0.2-0.9
		c0-0.4-0.1-0.8-0.4-1.1c-0.2-0.3-0.6-0.6-1-0.8c-0.4-0.2-0.9-0.4-1.4-0.5s-1.1-0.2-1.7-0.2c-0.6,0-1.2,0-1.8,0.1s-1.1,0.1-1.5,0.2
		s-0.9,0.2-1.4,0.3h-0.1l-1.2-1.3c0,0,0.2-0.1,0.8-0.2s1.2-0.3,2-0.5s1.7-0.3,2.7-0.5c1-0.1,1.8-0.2,2.6-0.2c1.6,0,2.9,0.2,4,0.5
		s2,0.7,2.7,1.1c0.7,0.5,1.2,1,1.5,1.5s0.5,1.2,0.5,1.7c0,0.1,0,0.2,0,0.3c0,0.1,0,0.2,0,0.3l-5.4,0.6h7.7V70.7z M774,86.1l7.7,3.4
		l-3.7,3.2L763.9,86l2.4-5.1c1,0.5,1.9,0.9,2.8,1.1c0.9,0.2,1.7,0.3,2.4,0.3c1.5,0,2.7-0.3,3.6-0.9s1.3-1.3,1.3-2.2
		c0-0.7-0.3-1.4-0.8-1.9s-1.4-1-2.4-1.2l-0.2,0.3c0.3,0.4,0.4,0.8,0.4,1.2c0,0.4-0.1,0.8-0.3,1.1c-0.2,0.4-0.5,0.7-0.8,0.9
		c-0.3,0.3-0.7,0.5-1.1,0.6s-0.8,0.2-1.2,0.2c-0.9,0-1.7-0.3-2.4-0.8s-1.1-1.3-1.2-2.3c0-0.2,0.1-0.4,0.2-0.6
		c0.1-0.2,0.3-0.4,0.5-0.7c0.2-0.3,0.4-0.6,0.6-1.1c0.2-0.4,0.3-1,0.4-1.8h5.6c0.4,0,1,0.1,1.5,0.3c0.6,0.2,1.1,0.4,1.6,0.7
		c0.5,0.3,1,0.6,1.5,0.9s0.8,0.6,1.1,0.9c0.5,0.6,0.9,1.2,1.1,1.8c0.2,0.6,0.4,1.3,0.4,1.9c0,0.8-0.2,1.5-0.5,2.2s-0.8,1.4-1.3,1.9
		c-0.6,0.6-1.2,1.1-2,1.5s-1.6,0.7-2.6,0.8L774,86.1z"/>
</g>
</svg>
